/* XPM */
static const char *coche_bitmap[] = {
/* columns rows colors chars-per-pixel */
"16 16 8 1",
"  c black",
". c #0B0B0B0B0B0B",
"X c gray16",
"o c gray22",
"O c #4B4B4B4B4B4B",
"+ c #747474747474",
"@ c #959595959595",
"# c None",
/* pixels */
"################",
"##############O ",
"############# X#",
"############ .##",
"########### @###",
"########## O####",
"#########  #####",
"########  ######",
"#######. #######",
"#   ##@  #######",
"##  o#  ########",
"###    @########",
"###    #########",
"###+  O#########",
"#### ###########",
"################"
};
