/* XPM */
static const char *croix4_bitmap[] = {
/* columns rows colors chars-per-pixel */
"16 16 3 1",
"# c black",
"! c deepskyblue",
"  c None",
/* pixels */
"       !        ",
"       !        ",
"       !        ",
"       !        ",
"       !        ",
"       !        ",
"       !        ",
"!!!!!!!!!!!!!!! ",
"       !        ",
"       !        ",
"       !        ",
"       !        ",
"       !        ",
"       !        ",
"       !        ",
"                "
};
