/* XPM */
static const char *croix2_bitmap[] = {
/* columns rows colors chars-per-pixel */
"16 16 3 1",
"# c black",
"! c orange",
"  c None",
/* pixels */
"       !        ",
"       !        ",
"       !        ",
"       !        ",
"       !        ",
"       !        ",
"       !        ",
"!!!!!!!!!!!!!!! ",
"       !        ",
"       !        ",
"       !        ",
"       !        ",
"       !        ",
"       !        ",
"       !        ",
"                "
};
