/* XPM */
static const char *croix_bitmap[] = {
/* columns rows colors chars-per-pixel */
"16 16 3 1",
"# c black",
"! c red",
"  c None",
/* pixels */
"       !        ",
"       !        ",
"       !        ",
"       !        ",
"       !        ",
"       !        ",
"       !        ",
"!!!!!!!!!!!!!!! ",
"       !        ",
"       !        ",
"       !        ",
"       !        ",
"       !        ",
"       !        ",
"       !        ",
"                "
};
