/* XPM */
static const char *croix3_bitmap[] = {
/* columns rows colors chars-per-pixel */
"16 16 3 1",
"# c black",
"! c magenta",
"  c None",
/* pixels */
"       !        ",
"       !        ",
"       !        ",
"       !        ",
"       !        ",
"       !        ",
"       !        ",
"!!!!!!!!!!!!!!! ",
"       !        ",
"       !        ",
"       !        ",
"       !        ",
"       !        ",
"       !        ",
"       !        ",
"                "
};
